<?xml version="1.0"?>
<svg version="1.1" xmlns="http://www.w3.org/2000/svg" width="400px" height="50px" style=""><path fill="#d1a33f" d="M57.175,25.35l0.315,2.485c0.805-0.77,3.465-2.835,6.335-2.835c2.52,0,4.06,1.19,4.865,3.01c0.455-0.455,3.29-3.01,6.51-3.01c3.85,0,5.425,2.45,5.425,6.3l0,9.8l2.625,0.875l0,1.925l-8.4,0l0-1.925l2.275-0.875l0-9.45c0-2.45-0.7-3.675-2.975-3.675c-2.975,0-4.9,2.8-4.9,2.8l0,10.325l2.275,0.875l0,1.925l-8.05,0l0-1.925l2.275-0.875l0-9.45c0-2.45-0.7-3.675-2.975-3.675c-2.975,0-4.9,2.8-4.9,2.8l0,10.325l2.275,0.875l0,1.925l-8.75,0l0-1.925l2.975-0.875l0-12.95l-2.975-0.7l0-1.925z M91.076,41.1l0-18.9l-2.975-0.7l0-1.925l6.65-0.175l3.85,0c4.935,0,7.875,2.38,7.875,6.3c0,3.395-1.54,5.705-4.55,6.825c0.56,0.49,1.19,1.4,2.1,3.15l2.765,5.565l2.485,0.56l0,2.1l-5.25,0l-2.975-6.475c-1.645-3.5-2.415-4.2-4.725-4.2l-1.575,0l0,7.875l2.975,0.7l0,2.1l-9.625,0l0-2.1z M94.751,30.6l2.625,0c3.43,0,5.425-1.61,5.425-4.375c0-2.345-1.82-4.025-4.375-4.025l-3.675,0l0,8.4z M114.652,30.775l-0.175-4.375s3.85-1.4,6.825-1.4c4.06,0,6.475,1.4,6.475,5.425l0,10.675l2.8,0.7l0,1.925l-5.425,0.175l-0.735-2.45c-1.19,1.19-3.29,2.8-5.74,2.8c-3.325,0-5.25-1.925-5.25-5.25c0-4.025,3.15-5.425,8.05-5.425l2.8,0l0-2.8c0-2.1-1.225-3.15-3.325-3.15s-3.535,0.525-3.535,0.525l-0.49,2.625l-2.275,0z M124.277,35.85l-2.45,0c-3.5,0-4.83,0.875-4.83,2.975c0,1.575,0.98,2.625,2.555,2.625c2.625,0,4.725-2.8,4.725-2.8l0-2.8z M137.703,19.575c0-1.575,1.05-2.45,2.275-2.45c1.4,0,2.275,0.7,2.275,2.45c0,1.575-1.225,2.45-2.275,2.45c-1.4,0-2.275-0.875-2.275-2.45z M144.528,41.975l0,1.925l-9.1,0l0-1.925l2.975-0.875l0-12.95l-2.975-0.7l0-1.925l6.475-0.175l0,15.75z M154.279,27.8l4.2,12.25l3.85-12.075l-2.45-0.525l0-1.925l8.295-0.175l0,2.1l-2.275,0.35l-4.97,13.86c-1.855,4.865-3.675,10.64-9.45,10.64c-0.875,0-2.24-0.175-2.24-0.175l0.315-2.45l1.75,0c2.45,0,4.025-2.31,5.565-5.705l-6.265-15.995l-2.1-0.525l0-1.925l8.225-0.175l0,2.1z M173.55,30.775l-0.175-4.375s3.85-1.4,6.825-1.4c4.06,0,6.475,1.4,6.475,5.425l0,10.675l2.8,0.7l0,1.925l-5.425,0.175l-0.735-2.45c-1.19,1.19-3.29,2.8-5.74,2.8c-3.325,0-5.25-1.925-5.25-5.25c0-4.025,3.15-5.425,8.05-5.425l2.8,0l0-2.8c0-2.1-1.225-3.15-3.325-3.15s-3.535,0.525-3.535,0.525l-0.49,2.625l-2.275,0z M183.175,35.85l-2.45,0c-3.5,0-4.83,0.875-4.83,2.975c0,1.575,0.98,2.625,2.555,2.625c2.625,0,4.725-2.8,4.725-2.8l0-2.8z"/><path fill="#" d=""/></svg>
